<svg version="1.1" xmlns="http://www.w3.org/2000/svg" viewBox="0 0 692.5 524" width="692.5" height="524">
  <!-- svg-source:excalidraw -->
  
  <defs>
    <style>
      @font-face {
        font-family: "Virgil";
        src: url("https://excalidraw.com/Virgil.woff2");
      }
      @font-face {
        font-family: "Cascadia";
        src: url("https://excalidraw.com/Cascadia.woff2");
      }
    </style>
  </defs>
  <rect x="0" y="0" width="692.5" height="524" fill="#ffffff"></rect><g stroke-linecap="round" transform="translate(291.5 134.5) rotate(0 103 40.5)"><path d="M83.8 0.04 C96.51 -1.25, 113.66 0.75, 127.19 2.1 C140.72 3.45, 153.97 5.01, 164.97 8.14 C175.97 11.27, 186.41 15.94, 193.19 20.86 C199.96 25.77, 204.51 32.24, 205.6 37.66 C206.69 43.07, 204.43 48.31, 199.74 53.34 C195.05 58.38, 187.08 63.91, 177.47 67.86 C167.85 71.82, 155.01 74.98, 142.05 77.09 C129.08 79.21, 113.74 80.41, 99.68 80.55 C85.62 80.69, 70.06 80.27, 57.68 77.95 C45.3 75.62, 34.31 71, 25.41 66.59 C16.51 62.18, 8.36 56.87, 4.27 51.51 C0.19 46.16, -1.01 39.76, 0.91 34.46 C2.83 29.17, 8.39 24.32, 15.82 19.74 C23.24 15.16, 33.01 10.17, 45.46 6.98 C57.91 3.78, 81.67 1.69, 90.53 0.55 C99.38 -0.58, 98.32 -0.46, 98.58 0.18 M96.79 -0.17 C110.13 -1.03, 127.33 0.12, 140.26 2.03 C153.19 3.94, 164.87 7.54, 174.37 11.31 C183.86 15.07, 191.93 19.61, 197.25 24.64 C202.57 29.66, 206.71 35.57, 206.27 41.44 C205.82 47.31, 200.65 54.83, 194.57 59.84 C188.49 64.84, 180.28 68.31, 169.78 71.48 C159.29 74.64, 144.99 77.26, 131.58 78.84 C118.17 80.43, 103.28 81.53, 89.32 80.98 C75.37 80.43, 59.63 78.68, 47.84 75.56 C36.05 72.44, 26.17 66.95, 18.59 62.24 C11.01 57.54, 4.83 52.41, 2.37 47.32 C-0.1 42.23, 0.73 37.05, 3.8 31.7 C6.88 26.36, 12.44 19.6, 20.83 15.27 C29.22 10.94, 41.33 8.44, 54.14 5.71 C66.96 2.97, 90.42 -0.38, 97.71 -1.14 C105.01 -1.9, 98.19 0.13, 97.91 1.15" stroke="#000000" stroke-width="1" fill="none"></path></g><g transform="translate(323.5 167.5) rotate(0 69.5 10.5)"><text x="0" y="16" font-family="Helvetica, Segoe UI Emoji" font-size="20px" fill="#000000" text-anchor="start" style="white-space: pre;" direction="ltr">COMMENTING</text></g><g stroke-linecap="round" transform="translate(292 10) rotate(0 103 40.5)"><path d="M91.48 0.66 C104.56 -0.52, 121.62 0.46, 134.93 2.02 C148.24 3.58, 160.9 6.3, 171.36 10 C181.83 13.69, 192.02 19.2, 197.74 24.2 C203.45 29.2, 205.71 34.67, 205.65 39.98 C205.59 45.3, 202.92 50.86, 197.38 56.09 C191.84 61.32, 182.9 67.63, 172.43 71.34 C161.96 75.05, 148.09 76.88, 134.56 78.36 C121.04 79.83, 105.03 80.62, 91.28 80.19 C77.52 79.77, 64.04 78.45, 52.04 75.79 C40.03 73.13, 27.53 68.9, 19.25 64.25 C10.96 59.61, 5.03 53.25, 2.33 47.92 C-0.37 42.59, 0.05 37.47, 3.03 32.24 C6.02 27.01, 12.04 20.96, 20.23 16.54 C28.41 12.12, 38.61 8.34, 52.16 5.71 C65.71 3.09, 91.85 1.6, 101.52 0.79 C111.2 -0.03, 110.26 0.15, 110.19 0.81 M66.79 2.69 C78.6 0.43, 96.06 0.49, 109.81 0.58 C123.55 0.68, 137.19 1.07, 149.26 3.25 C161.33 5.44, 173.36 9.05, 182.21 13.69 C191.06 18.34, 198.67 25.54, 202.34 31.13 C206.02 36.73, 206.5 42.1, 204.26 47.27 C202.03 52.45, 196.64 57.61, 188.93 62.17 C181.22 66.73, 169.79 71.64, 158.02 74.64 C146.25 77.64, 132.13 79.41, 118.32 80.17 C104.51 80.93, 88.37 80.61, 75.15 79.19 C61.92 77.78, 49.41 75.03, 38.96 71.67 C28.5 68.31, 18.9 64.08, 12.42 59.02 C5.95 53.95, 0.84 47, 0.1 41.26 C-0.64 35.52, 3.01 29.42, 7.98 24.6 C12.95 19.78, 20.21 15.89, 29.93 12.33 C39.66 8.78, 60.16 4.64, 66.31 3.27 C72.46 1.89, 66.4 3.44, 66.84 4.1" stroke="#000000" stroke-width="1" fill="none"></path></g><g transform="translate(360 42) rotate(0 33.5 10.5)"><text x="0" y="16" font-family="Helvetica, Segoe UI Emoji" font-size="20px" fill="#000000" text-anchor="start" style="white-space: pre;" direction="ltr">DRAFT</text></g><g stroke-linecap="round" transform="translate(10 138) rotate(0 103 40.5)"><path d="M77.92 0.79 C90.34 -0.89, 106.78 0.18, 120.43 1.08 C134.08 1.97, 148.09 3.31, 159.83 6.16 C171.57 9.01, 183.39 13.44, 190.87 18.19 C198.35 22.94, 202.85 29.02, 204.71 34.67 C206.57 40.31, 205.7 46.73, 202.02 52.04 C198.35 57.35, 191.7 62.22, 182.65 66.5 C173.6 70.79, 160.45 75.22, 147.73 77.76 C135 80.3, 120.16 81.66, 106.3 81.74 C92.44 81.82, 77.31 80.31, 64.56 78.22 C51.8 76.13, 39.65 73.21, 29.77 69.19 C19.89 65.17, 10.14 59.32, 5.29 54.09 C0.44 48.85, -0.32 43.21, 0.67 37.76 C1.66 32.3, 4.82 26.29, 11.22 21.34 C17.62 16.38, 25.61 11.43, 39.07 8.03 C52.53 4.62, 80.86 2.24, 92.01 0.89 C103.15 -0.45, 105.86 -0.49, 105.93 -0.05 M58.17 2.84 C68.92 -0.22, 83.75 -0.91, 97.61 -0.95 C111.46 -0.98, 128.32 0.6, 141.31 2.64 C154.29 4.68, 165.88 7.37, 175.53 11.3 C185.17 15.22, 194.38 20.82, 199.18 26.21 C203.98 31.59, 205.22 37.97, 204.32 43.61 C203.42 49.26, 200.03 55.12, 193.76 60.07 C187.48 65.02, 177.44 70.23, 166.67 73.29 C155.9 76.35, 142.78 77.17, 129.14 78.43 C115.49 79.69, 98.89 81.57, 84.8 80.85 C70.71 80.12, 55.91 77.35, 44.6 74.09 C33.29 70.84, 23.97 66.19, 16.93 61.32 C9.89 56.45, 4.32 50.21, 2.36 44.87 C0.4 39.54, 1.76 34.5, 5.18 29.3 C8.59 24.1, 13.96 17.99, 22.86 13.68 C31.76 9.37, 52.54 4.95, 58.58 3.45 C64.62 1.95, 58.7 3.98, 59.12 4.68" stroke="#000000" stroke-width="1" fill="none"></path></g><g transform="translate(66 171) rotate(0 43.5 10.5)"><text x="0" y="16" font-family="Helvetica, Segoe UI Emoji" font-size="20px" fill="#000000" text-anchor="start" style="white-space: pre;" direction="ltr">STALLED</text></g><g stroke-linecap="round" transform="translate(415 276) rotate(0 103 40.5)"><path d="M121.8 0.7 C135.06 0.91, 148.92 3.64, 160.57 6.6 C172.22 9.55, 184.18 13.83, 191.71 18.46 C199.24 23.09, 204.02 28.83, 205.75 34.39 C207.49 39.95, 206.27 46.34, 202.12 51.81 C197.97 57.28, 190.07 63.04, 180.85 67.19 C171.62 71.34, 159.21 74.58, 146.76 76.71 C134.31 78.85, 119.93 79.68, 106.14 79.99 C92.34 80.29, 76.99 80.35, 63.97 78.55 C50.95 76.75, 37.72 73.27, 28.03 69.2 C18.34 65.12, 10.35 59.35, 5.83 54.12 C1.32 48.89, -0.17 43.36, 0.94 37.84 C2.05 32.32, 5.92 25.79, 12.5 20.99 C19.08 16.19, 29.17 12.19, 40.41 9.03 C51.65 5.87, 65.85 3.25, 79.95 2.01 C94.04 0.78, 116.95 1.49, 124.96 1.62 C132.97 1.76, 128.31 2.31, 127.99 2.84 M144.64 2.27 C157.15 3.95, 168.22 9.48, 177.76 13.63 C187.3 17.79, 197.25 22.11, 201.88 27.21 C206.51 32.32, 207.13 38.89, 205.56 44.27 C203.99 49.65, 199.41 54.8, 192.45 59.51 C185.49 64.23, 174.89 69.17, 163.79 72.55 C152.68 75.92, 139.23 78.57, 125.81 79.75 C112.39 80.92, 97.06 80.67, 83.28 79.58 C69.49 78.49, 54.74 76.4, 43.1 73.21 C31.46 70.03, 20.39 65, 13.41 60.48 C6.43 55.95, 2.48 51.29, 1.22 46.05 C-0.05 40.81, 1.65 34.23, 5.84 29.04 C10.03 23.86, 17.49 18.94, 26.35 14.92 C35.21 10.9, 46.28 7.56, 59.01 4.92 C71.74 2.28, 88.83 -0.73, 102.73 -0.92 C116.63 -1.11, 135.65 2.77, 142.4 3.78 C149.16 4.79, 143.59 4.54, 143.24 5.15" stroke="#000000" stroke-width="1" fill="none"></path></g><g transform="translate(460 308) rotate(0 55.5 10.5)"><text x="0" y="16" font-family="Helvetica, Segoe UI Emoji" font-size="20px" fill="#000000" text-anchor="start" style="white-space: pre;" direction="ltr">ACCEPTED</text></g><g stroke-linecap="round" transform="translate(179 280) rotate(0 103 40.5)"><path d="M120.91 0.07 C134.23 0.33, 148.71 4.25, 160.23 7.27 C171.75 10.29, 182.61 13.5, 190.03 18.18 C197.45 22.86, 202.9 29.93, 204.75 35.35 C206.6 40.77, 205.09 45.57, 201.14 50.7 C197.19 55.84, 189.82 61.72, 181.06 66.18 C172.3 70.65, 161.14 75.07, 148.6 77.5 C136.07 79.94, 119.76 80.69, 105.83 80.8 C91.9 80.91, 77.71 80.3, 65.02 78.16 C52.33 76.03, 39.43 72, 29.71 67.99 C19.99 63.98, 11.77 59.15, 6.71 54.1 C1.65 49.05, -1.54 43.02, -0.65 37.68 C0.24 32.34, 5.54 26.93, 12.05 22.07 C18.56 17.21, 27.61 12.05, 38.42 8.51 C49.23 4.97, 61.39 1.84, 76.91 0.82 C92.44 -0.2, 120.63 1.72, 131.56 2.39 C142.5 3.06, 142.86 4.25, 142.52 4.85 M133.65 2.91 C146.73 3.73, 159.69 6.46, 170.19 9.7 C180.68 12.95, 190.5 17.6, 196.62 22.38 C202.73 27.16, 206.91 32.66, 206.87 38.37 C206.84 44.08, 202 51.44, 196.41 56.65 C190.81 61.86, 183.15 66.13, 173.31 69.62 C163.47 73.12, 150.72 75.77, 137.37 77.59 C124.02 79.41, 107.35 80.58, 93.2 80.54 C79.04 80.49, 64.75 79.72, 52.44 77.33 C40.13 74.94, 27.77 70.84, 19.33 66.2 C10.89 61.57, 4.47 54.91, 1.8 49.53 C-0.86 44.15, 0.36 39.4, 3.36 33.92 C6.37 28.44, 12.03 21.21, 19.85 16.67 C27.66 12.13, 38.3 9.64, 50.26 6.69 C62.21 3.74, 77.87 -0.19, 91.58 -1.03 C105.29 -1.87, 125.79 0.92, 132.54 1.65 C139.3 2.39, 132.26 2.82, 132.12 3.39" stroke="#000000" stroke-width="1" fill="none"></path></g><g transform="translate(224 312) rotate(0 63 10.5)"><text x="0" y="16" font-family="Helvetica, Segoe UI Emoji" font-size="20px" fill="#000000" text-anchor="start" style="white-space: pre;" direction="ltr">POSTPONED</text></g><g stroke-linecap="round" transform="translate(423 433) rotate(0 103 40.5)"><path d="M140.18 2.48 C153.23 3.84, 166.12 8.35, 175.93 12.26 C185.74 16.16, 194.04 20.91, 199.05 25.92 C204.06 30.93, 206.51 36.76, 205.98 42.32 C205.45 47.88, 202.18 54.45, 195.86 59.28 C189.54 64.11, 179.02 67.81, 168.04 71.3 C157.06 74.8, 143.37 78.64, 130 80.26 C116.64 81.88, 101.61 82.08, 87.86 81.02 C74.11 79.95, 59.39 77.08, 47.51 73.89 C35.64 70.69, 24.26 66.4, 16.62 61.86 C8.99 57.33, 4.06 52.05, 1.72 46.68 C-0.62 41.32, -0.81 34.87, 2.57 29.67 C5.94 24.47, 13.21 19.63, 21.96 15.5 C30.72 11.37, 42.69 7.41, 55.1 4.9 C67.52 2.39, 81.5 0.56, 96.43 0.44 C111.36 0.33, 136.25 3.39, 144.68 4.19 C153.1 4.98, 147.78 4.64, 146.96 5.2 M115.84 -0.85 C129.01 -1.06, 143.03 1.69, 155.04 4.61 C167.04 7.54, 179.57 12.22, 187.87 16.68 C196.16 21.14, 202.09 25.95, 204.79 31.37 C207.5 36.78, 207.11 43.49, 204.12 49.17 C201.12 54.84, 194.94 61.24, 186.82 65.44 C178.69 69.63, 167.58 71.88, 155.36 74.33 C143.15 76.79, 127.71 79.2, 113.53 80.19 C99.35 81.18, 83.72 81.99, 70.26 80.26 C56.8 78.52, 42.8 73.6, 32.77 69.8 C22.75 66, 15.51 62.44, 10.11 57.46 C4.71 52.47, 0.42 45.66, 0.37 39.89 C0.32 34.12, 4.06 27.73, 9.81 22.83 C15.56 17.92, 24.28 13.87, 34.86 10.46 C45.44 7.06, 60.23 3.95, 73.29 2.41 C86.36 0.87, 106.57 1.27, 113.25 1.2 C119.93 1.13, 113.19 1.47, 113.36 1.96" stroke="#000000" stroke-width="1" fill="none"></path></g><g transform="translate(486 465) rotate(0 41 10.5)"><text x="0" y="16" font-family="Helvetica, Segoe UI Emoji" font-size="20px" fill="#000000" text-anchor="start" style="white-space: pre;" direction="ltr">CLOSED</text></g><g stroke-linecap="round"><g transform="translate(396 92.5) rotate(0 -1.3759305495768785 28.256441374495623)"><path d="M0.92 -1.07 C0.12 8.72, -2.99 47.98, -3.67 57.58 M-0.06 0.98 C-0.56 10.52, -0.65 46.33, -1.31 55.76" stroke="#000000" stroke-width="1" fill="none"></path></g><g transform="translate(396 92.5) rotate(0 -1.3759305495768785 28.256441374495623)"><path d="M-11.97 27.52 C-6 38.94, -4.29 50.69, 0.56 56.07 M-11.04 29.64 C-7.48 35.17, -6.05 40.98, -0.35 54.95" stroke="#000000" stroke-width="1" fill="none"></path></g><g transform="translate(396 92.5) rotate(0 -1.3759305495768785 28.256441374495623)"><path d="M7.55 28.16 C5.86 39.48, -0.09 50.98, 0.56 56.07 M8.48 30.28 C7.49 35.51, 4.36 41.18, -0.35 54.95" stroke="#000000" stroke-width="1" fill="none"></path></g></g><g stroke-linecap="round"><g transform="translate(290 179.5) rotate(0 -34.30883033073508 0.6165107148047468)"><path d="M0.98 1.13 C-10.64 1.21, -57.21 0.05, -68.77 -0.12 M0.03 0.68 C-11.81 1, -58.12 1.22, -69.59 1.35" stroke="#000000" stroke-width="1" fill="none"></path></g><g transform="translate(290 179.5) rotate(0 -34.30883033073508 0.6165107148047468)"><path d="M-39.6 -8.74 C-52.39 -3.86, -62.68 -0.4, -70.47 1.31 M-40.75 -9.63 C-51.07 -5.24, -59.49 -3.15, -68.75 0.5" stroke="#000000" stroke-width="1" fill="none"></path></g><g transform="translate(290 179.5) rotate(0 -34.30883033073508 0.6165107148047468)"><path d="M-39.44 11.78 C-52.18 8.89, -62.54 4.57, -70.47 1.31 M-40.59 10.89 C-51.08 8.96, -59.54 4.71, -68.75 0.5" stroke="#000000" stroke-width="1" fill="none"></path></g></g><g transform="translate(231 147) rotate(0 24 12)"><text x="0" y="17" font-family="Virgil, Segoe UI Emoji" font-size="20px" fill="#c92a2a" text-anchor="start" style="white-space: pre;" direction="ltr">is idle</text></g><g stroke-linecap="round"><g transform="translate(393.5 218) rotate(0 -0.44820220880211536 14.844315882390362)"><path d="M0.76 0.52 C0.64 5.5, -1.18 25.04, -1.65 29.94 M-0.31 -0.26 C0.06 4.4, 0.62 23.59, 0.72 28.32" stroke="#000000" stroke-width="1" fill="none"></path></g></g><g stroke-linecap="round"><g transform="translate(396.5 245) rotate(0 -62.245720763280985 14.760307344868778)"><path d="M0.86 -0.04 C-19.88 4.61, -103.93 24.25, -124.95 29.06 M-0.15 -1.1 C-20.9 4.25, -104.44 25.43, -125.35 30.62" stroke="#000000" stroke-width="1" fill="none"></path></g><g transform="translate(396.5 245) rotate(0 -62.245720763280985 14.760307344868778)"><path d="M-100.57 15.55 C-106.56 19.51, -113.27 22.67, -124.32 28.63 M-101.03 14.59 C-111.2 21.12, -120.17 27.81, -124.48 31.58" stroke="#000000" stroke-width="1" fill="none"></path></g><g transform="translate(396.5 245) rotate(0 -62.245720763280985 14.760307344868778)"><path d="M-95.57 35.45 C-103.03 34.39, -111.01 32.48, -124.32 28.63 M-96.02 34.49 C-108.22 33.11, -119.19 31.89, -124.48 31.58" stroke="#000000" stroke-width="1" fill="none"></path></g></g><g stroke-linecap="round"><g transform="translate(393.8120630492333 257.4284198136404) rotate(14.458209714591232 50.450682122606736 3.645835455727621)"><path d="M-0.04 0.77 C16.69 1.52, 83.36 4.68, 100.04 5.53 M-1.53 0.13 C15.64 1.61, 85.69 6.55, 102.43 7.16" stroke="#000000" stroke-width="1" fill="none"></path></g><g transform="translate(393.8120630492333 257.4284198136404) rotate(14.458209714591232 50.450682122606736 3.645835455727621)"><path d="M74.99 14.79 C81.61 12.43, 89.88 12.83, 103.49 8.21 M73.36 15.08 C80.89 12.66, 89.55 11.82, 101.54 7.35" stroke="#000000" stroke-width="1" fill="none"></path></g><g transform="translate(393.8120630492333 257.4284198136404) rotate(14.458209714591232 50.450682122606736 3.645835455727621)"><path d="M76.15 -5.7 C82.65 -2.58, 90.6 3.3, 103.49 8.21 M74.52 -5.4 C81.92 -2.4, 90.27 2.19, 101.54 7.35" stroke="#000000" stroke-width="1" fill="none"></path></g></g><g transform="translate(543.5 370) rotate(0 69.5 25.5)"><text x="69.5" y="18.5" font-family="Virgil, Segoe UI Emoji" font-size="20px" fill="#c92a2a" text-anchor="middle" style="white-space: pre;" direction="ltr">merge feature</text><text x="69.5" y="44" font-family="Virgil, Segoe UI Emoji" font-size="20px" fill="#c92a2a" text-anchor="middle" style="white-space: pre;" direction="ltr">PRs</text></g><g stroke-linecap="round"><g transform="translate(523.5 361) rotate(0 -0.4561211722132157 35.1624072114285)"><path d="M0.2 0.78 C0.39 12.49, -0.07 58.65, 0.09 70.18 M-1.16 0.15 C-1.02 11.57, -1.18 57.35, -0.81 68.67" stroke="#000000" stroke-width="1" fill="none"></path></g><g transform="translate(523.5 361) rotate(0 -0.4561211722132157 35.1624072114285)"><path d="M-10.1 40.76 C-7.24 48.46, -5.4 52.73, 0.34 69.32 M-11.59 40.26 C-8.32 47.53, -5.03 55.15, -0.75 68.45" stroke="#000000" stroke-width="1" fill="none"></path></g><g transform="translate(523.5 361) rotate(0 -0.4561211722132157 35.1624072114285)"><path d="M10.42 40.51 C8.97 48.3, 6.51 52.62, 0.34 69.32 M8.93 40.02 C6.71 47.24, 4.51 54.92, -0.75 68.45" stroke="#000000" stroke-width="1" fill="none"></path></g></g><g stroke-opacity="0.6" fill-opacity="0.6" transform="translate(498.5 175) rotate(0 26 -61.5)" stroke="none" fill="#000000"><path d="M 0,-1.59 Q 0,-1.59 2.3,-1.55 4.6,-1.51 6.72,-1.49 8.85,-1.46 10.89,-1.45 12.94,-1.45 15.32,-2.26 17.71,-3.07 19.67,-3.72 21.64,-4.37 23.66,-4.95 25.67,-5.52 27.59,-6.30 29.51,-7.07 31.09,-8.20 32.67,-9.34 35.38,-11.54 38.08,-13.74 40.05,-15.78 42.03,-17.82 43.40,-19.78 44.78,-21.75 45.95,-23.47 47.13,-25.20 47.82,-26.74 48.50,-28.29 49.40,-29.90 50.29,-31.52 50.87,-32.97 51.44,-34.43 51.65,-36.02 51.86,-37.61 52.29,-39.57 52.73,-41.52 53.22,-43.50 53.71,-45.47 54.23,-47.72 54.75,-49.96 54.98,-51.99 55.21,-54.01 55.55,-55.87 55.89,-57.72 55.97,-59.25 56.06,-60.78 56.06,-62.28 56.06,-63.79 56.09,-65.57 56.11,-67.35 56.09,-68.98 56.07,-70.60 56.03,-72.15 56.00,-73.70 55.70,-75.03 55.40,-76.37 54.99,-77.79 54.58,-79.22 54.11,-80.68 53.65,-82.14 52.75,-84.10 51.86,-86.06 51.11,-87.87 50.37,-89.68 49.54,-90.82 48.70,-91.96 47.51,-94.04 46.32,-96.11 45.26,-97.45 44.20,-98.79 43.13,-100.28 42.06,-101.77 41.05,-102.88 40.05,-103.99 39.03,-105.00 38.02,-106.02 36.36,-107.29 34.70,-108.55 33.36,-109.34 32.02,-110.12 30.67,-110.68 29.32,-111.24 28.09,-111.76 26.86,-112.27 25.55,-112.74 24.24,-113.20 23.02,-113.69 21.79,-114.18 20.68,-114.65 19.57,-115.13 18.51,-115.60 17.45,-116.07 15.68,-116.94 13.92,-117.81 12.70,-118.06 11.49,-118.31 10.19,-118.74 8.90,-119.17 7.23,-119.27 5.56,-119.38 4.38,-119.74 3.20,-120.11 1.92,-120.11 0.65,-120.10 -1.12,-120.08 -2.91,-120.05 -4.45,-120.04 -6.00,-120.03 -6.47,-120.11 -6.94,-120.19 -7.37,-120.41 -7.79,-120.63 -8.12,-120.98 -8.45,-121.33 -8.65,-121.77 -8.85,-122.20 -8.90,-122.68 -8.96,-123.16 -8.85,-123.62 -8.75,-124.09 -8.50,-124.50 -8.25,-124.92 -7.89,-125.23 -7.52,-125.54 -7.08,-125.71 -6.63,-125.89 -6.15,-125.92 -5.67,-125.94 -5.21,-125.81 -4.75,-125.69 -4.35,-125.42 -3.96,-125.15 -3.67,-124.77 -3.37,-124.38 -3.22,-123.93 -3.07,-123.47 -3.07,-122.99 -3.07,-122.51 -3.22,-122.06 -3.38,-121.61 -3.67,-121.22 -3.96,-120.84 -4.35,-120.57 -4.75,-120.30 -5.21,-120.18 -5.68,-120.05 -6.15,-120.07 -6.63,-120.10 -7.08,-120.28 -7.52,-120.45 -7.89,-120.77 -8.26,-121.08 -8.50,-121.49 -8.75,-121.90 -8.85,-122.37 -8.96,-122.84 -8.90,-123.31 -8.85,-123.79 -8.65,-124.22 -8.45,-124.66 -8.12,-125.01 -7.79,-125.36 -7.36,-125.58 -6.94,-125.81 -6.47,-125.88 -5.99,-125.96 -5.99,-125.96 -5.99,-125.96 -3.70,-125.92 -1.40,-125.88 -0.31,-125.87 0.78,-125.85 1.89,-125.74 3.00,-125.63 4.48,-125.00 5.96,-124.38 8.24,-123.97 10.52,-123.55 11.54,-123.12 12.56,-122.69 14.09,-122.27 15.61,-121.85 17.60,-121.15 19.58,-120.44 20.58,-119.91 21.58,-119.37 22.60,-118.84 23.62,-118.30 24.70,-117.76 25.79,-117.23 27.22,-116.64 28.65,-116.05 29.79,-115.44 30.94,-114.83 32.48,-114.09 34.02,-113.35 35.41,-112.44 36.81,-111.52 38.88,-110.14 40.95,-108.76 41.95,-107.61 42.95,-106.46 43.99,-105.17 45.02,-103.88 46.03,-102.43 47.05,-100.99 48.19,-99.48 49.33,-97.98 50.63,-96.06 51.92,-94.13 52.86,-92.64 53.80,-91.15 54.53,-89.47 55.26,-87.79 56.48,-85.60 57.71,-83.40 58.16,-81.85 58.62,-80.31 59.02,-78.71 59.43,-77.12 59.70,-75.41 59.97,-73.70 59.93,-72.13 59.89,-70.57 59.84,-68.93 59.79,-67.29 59.76,-65.46 59.73,-63.63 59.59,-62.04 59.46,-60.44 59.23,-58.75 58.99,-57.06 58.58,-55.39 58.18,-53.72 57.99,-51.52 57.81,-49.31 57.36,-47.01 56.92,-44.72 56.49,-42.76 56.05,-40.81 55.67,-38.94 55.28,-37.07 54.92,-35.07 54.55,-33.08 53.78,-31.50 53.01,-29.91 52.08,-28.45 51.15,-26.98 50.25,-25.33 49.35,-23.68 48.16,-21.94 46.97,-20.20 45.47,-18.08 43.97,-15.95 41.89,-13.79 39.81,-11.63 37.04,-9.35 34.27,-7.08 32.42,-5.79 30.58,-4.51 28.51,-3.65 26.45,-2.80 24.49,-2.24 22.53,-1.69 20.57,-1.03 18.60,-0.37 15.79,0.53 12.98,1.45 10.92,1.45 8.85,1.46 6.72,1.49 4.6,1.51 2.3,1.55 0,1.59 -0.19,1.57 -0.38,1.54 -0.56,1.48 -0.74,1.41 -0.89,1.30 -1.05,1.19 -1.18,1.05 -1.31,0.90 -1.40,0.73 -1.49,0.56 -1.53,0.37 -1.58,0.19 -1.58,-0.00 -1.58,-0.19 -1.53,-0.37 -1.49,-0.56 -1.40,-0.73 -1.31,-0.90 -1.18,-1.05 -1.05,-1.19 -0.89,-1.30 -0.74,-1.41 -0.56,-1.48 -0.38,-1.54 -0.19,-1.57 0.00,-1.59 0.00,-1.59 L 0,-1.59 Z"></path></g><g stroke-opacity="0.6" fill-opacity="0.6" transform="translate(493.5 51) rotate(0 7.5 8)" stroke="none" fill="#000000"><path d="M 1.81,-1.81 Q 1.81,-1.81 2.68,-0.96 3.55,-0.11 4.65,0.74 5.74,1.61 6.53,2.50 7.31,3.39 8.56,4.64 9.80,5.88 10.79,7.24 11.78,8.60 12.74,9.42 13.70,10.23 14.41,11.09 15.12,11.95 16.49,13.84 17.85,15.73 17.82,16.19 17.79,16.65 17.61,17.08 17.43,17.51 17.13,17.86 16.82,18.21 16.42,18.45 16.02,18.68 15.56,18.77 15.11,18.87 14.65,18.81 14.18,18.75 13.77,18.55 13.35,18.35 13.01,18.02 12.68,17.70 12.47,17.28 12.26,16.87 12.19,16.41 12.12,15.95 12.21,15.49 12.29,15.04 12.51,14.63 12.74,14.22 13.08,13.91 13.42,13.59 13.84,13.40 14.27,13.22 14.73,13.17 15.19,13.13 15.65,13.24 16.10,13.34 16.49,13.59 16.89,13.83 17.18,14.19 17.48,14.55 17.64,14.99 17.81,15.42 17.83,15.88 17.85,16.35 17.71,16.80 17.58,17.24 17.32,17.62 17.05,18.00 16.68,18.28 16.30,18.55 15.86,18.69 15.42,18.84 14.95,18.83 14.49,18.82 14.05,18.67 13.61,18.51 13.25,18.22 12.88,17.94 12.62,17.55 12.37,17.16 12.25,16.71 12.14,16.26 12.14,16.26 12.14,16.26 10.55,14.93 8.96,13.59 8.24,12.70 7.52,11.80 6.69,10.74 5.85,9.68 5.03,8.80 4.21,7.93 3.41,6.76 2.62,5.60 1.25,4.58 -0.10,3.56 -0.96,2.68 -1.81,1.81 -2.00,1.56 -2.19,1.32 -2.31,1.04 -2.44,0.76 -2.50,0.45 -2.55,0.15 -2.53,-0.15 -2.51,-0.46 -2.42,-0.75 -2.33,-1.05 -2.17,-1.31 -2.01,-1.57 -1.79,-1.79 -1.57,-2.01 -1.31,-2.17 -1.05,-2.33 -0.75,-2.42 -0.46,-2.51 -0.15,-2.53 0.15,-2.55 0.45,-2.50 0.76,-2.44 1.04,-2.31 1.32,-2.19 1.56,-2.00 1.81,-1.81 1.81,-1.81 L 1.81,-1.81 Z"></path></g><g stroke-opacity="0.6" fill-opacity="0.6" transform="translate(493.5 48) rotate(0 16 -3.5)" stroke="none" fill="#000000"><path d="M 0,-2.22 Q 0,-2.22 1.72,-2.19 3.44,-2.17 5.49,-2.33 7.53,-2.50 8.76,-2.70 9.99,-2.89 11.75,-3.40 13.52,-3.90 15.55,-4.40 17.59,-4.91 19.09,-5.23 20.59,-5.55 22.02,-5.76 23.46,-5.97 24.72,-6.69 25.99,-7.41 28.28,-8.38 30.56,-9.34 30.97,-9.51 31.38,-9.68 31.83,-9.70 32.27,-9.73 32.70,-9.61 33.13,-9.50 33.50,-9.25 33.87,-9.00 34.14,-8.65 34.42,-8.30 34.56,-7.88 34.71,-7.46 34.71,-7.01 34.71,-6.57 34.57,-6.15 34.43,-5.72 34.17,-5.37 33.90,-5.01 33.53,-4.76 33.17,-4.51 32.74,-4.39 32.31,-4.26 31.87,-4.28 31.42,-4.31 31.01,-4.47 30.59,-4.63 30.25,-4.91 29.91,-5.20 29.68,-5.58 29.45,-5.96 29.35,-6.39 29.25,-6.83 29.30,-7.27 29.34,-7.71 29.52,-8.12 29.71,-8.52 30.01,-8.85 30.32,-9.17 30.71,-9.38 31.10,-9.59 31.54,-9.67 31.98,-9.74 32.42,-9.68 32.85,-9.61 33.25,-9.40 33.64,-9.20 33.95,-8.87 34.26,-8.55 34.45,-8.15 34.64,-7.75 34.69,-7.31 34.74,-6.87 34.65,-6.43 34.56,-5.99 34.33,-5.61 34.10,-5.23 33.77,-4.94 33.43,-4.65 33.43,-4.65 33.43,-4.65 31.13,-3.88 28.83,-3.11 27.73,-2.76 26.64,-2.41 25.60,-2.16 24.57,-1.90 22.89,-1.82 21.22,-1.75 19.88,-1.60 18.55,-1.45 16.62,-0.84 14.70,-0.24 12.56,0.50 10.43,1.25 9.23,1.30 8.04,1.35 5.74,1.76 3.45,2.17 1.72,2.19 0,2.22 -0.26,2.19 -0.53,2.15 -0.78,2.06 -1.03,1.96 -1.25,1.81 -1.47,1.66 -1.65,1.46 -1.82,1.26 -1.95,1.02 -2.07,0.78 -2.14,0.52 -2.20,0.26 -2.20,-0.00 -2.20,-0.26 -2.14,-0.52 -2.07,-0.78 -1.95,-1.02 -1.82,-1.26 -1.65,-1.46 -1.47,-1.66 -1.25,-1.81 -1.03,-1.96 -0.78,-2.06 -0.53,-2.15 -0.26,-2.19 0.00,-2.22 0.00,-2.22 L 0,-2.22 Z"></path></g><g transform="translate(493.1190476190477 104.5) rotate(0 30 24.5)"><text x="30" y="17.5" font-family="Virgil, Segoe UI Emoji" font-size="19.047619047619058px" fill="#c92a2a" text-anchor="middle" style="white-space: pre;" direction="ltr">needs </text><text x="30" y="42" font-family="Virgil, Segoe UI Emoji" font-size="19.047619047619058px" fill="#c92a2a" text-anchor="middle" style="white-space: pre;" direction="ltr">rework</text></g></svg>