<svg width="3633" height="1140" xmlns="http://www.w3.org/2000/svg" xmlns:xlink="http://www.w3.org/1999/xlink" xml:space="preserve" overflow="hidden"><defs><clipPath id="clip0"><rect x="132" y="718" width="3633" height="1140"/></clipPath></defs><g clip-path="url(#clip0)" transform="translate(-132 -718)"><rect x="883" y="738" width="587" height="362" fill="#00AAB5"/><text fill="#FFFFFF" font-family="Calibri,Calibri_MSFontService,sans-serif" font-weight="400" font-size="83" transform="matrix(1 0 0 1 1028.01 897)">Torch JIT </text><text fill="#FFFFFF" font-family="Calibri,Calibri_MSFontService,sans-serif" font-weight="400" font-size="83" transform="matrix(1 0 0 1 975.297 996)">Trace/script</text><path d="M132 917C132 807.095 263.404 718 425.5 718 587.596 718 719 807.095 719 917 719 1026.9 587.596 1116 425.5 1116 263.404 1116 132 1026.9 132 917Z" fill="#F26522" fill-rule="evenodd"/><text fill="#FFFFFF" font-family="Calibri,Calibri_MSFontService,sans-serif" font-weight="400" font-size="83" transform="matrix(1 0 0 1 289.999 895)">PyTorch </text><text fill="#FFFFFF" font-family="Calibri,Calibri_MSFontService,sans-serif" font-weight="400" font-size="83" transform="matrix(1 0 0 1 318.645 994)">model</text><path d="M719.5 915.781 801.758 915.781C802.708 915.781 803.477 916.551 803.477 917.5L803.477 919.792 801.758 918.073 861.1 918.073 861.1 921.51 801.758 921.51C800.809 921.51 800.04 920.741 800.04 919.792L800.04 917.5 801.758 919.219 719.5 919.219ZM856.517 906.042 884.017 919.792 856.517 933.542Z" fill="#00AAB5"/><path d="M1634 917C1634 807.095 1765.4 718 1927.5 718 2089.6 718 2221 807.095 2221 917 2221 1026.9 2089.6 1116 1927.5 1116 1765.4 1116 1634 1026.9 1634 917Z" fill="#F26522" fill-rule="evenodd"/><text fill="#FFFFFF" font-family="Calibri,Calibri_MSFontService,sans-serif" font-weight="400" font-size="83" transform="matrix(1 0 0 1 1832.17 845)">Torch </text><text fill="#FFFFFF" font-family="Calibri,Calibri_MSFontService,sans-serif" font-weight="400" font-size="83" transform="matrix(1 0 0 1 1834.76 944)">script </text><text fill="#FFFFFF" font-family="Calibri,Calibri_MSFontService,sans-serif" font-weight="400" font-size="83" transform="matrix(1 0 0 1 1821.01 1043)">model</text><path d="M0-1.71875 82.2584-1.71875C83.2076-1.71875 83.9771-0.949239 83.9771 0L83.9771 2.29203 82.2584 0.573278 141.6 0.573278 141.6 4.01078 82.2584 4.01078C81.3091 4.01078 80.5396 3.24127 80.5396 2.29203L80.5396 0 82.2584 1.71875 0 1.71875ZM137.017-11.458 164.517 2.29203 137.017 16.042Z" fill="#00AAB5" transform="matrix(1 0 0 -1 1470.5 919.792)"/><rect x="2385" y="738" width="587" height="362" fill="#00AAB5"/><text fill="#FFFFFF" font-family="Calibri,Calibri_MSFontService,sans-serif" font-weight="400" font-size="83" transform="matrix(1 0 0 1 2514.33 947)">JIT Freeze</text><path d="M2221.5 915.781 2303.76 915.781C2304.71 915.781 2305.48 916.551 2305.48 917.5L2305.48 919.792 2303.76 918.073 2363.1 918.073 2363.1 921.51 2303.76 921.51C2302.81 921.51 2302.04 920.741 2302.04 919.792L2302.04 917.5 2303.76 919.219 2221.5 919.219ZM2358.52 906.042 2386.02 919.792 2358.52 933.542Z" fill="#00AAB5"/><path d="M3137 917C3137 807.095 3268.18 718 3430 718 3591.82 718 3723 807.095 3723 917 3723 1026.9 3591.82 1116 3430 1116 3268.18 1116 3137 1026.9 3137 917Z" fill="#F26522" fill-rule="evenodd"/><text fill="#FFFFFF" font-family="Calibri,Calibri_MSFontService,sans-serif" font-weight="400" font-size="83" transform="matrix(1 0 0 1 3316.22 895)">Frozen </text><text fill="#FFFFFF" font-family="Calibri,Calibri_MSFontService,sans-serif" font-weight="400" font-size="83" transform="matrix(1 0 0 1 3323.39 994)">model</text><path d="M0-1.71875 82.2584-1.71875C83.2076-1.71875 83.9771-0.949239 83.9771 0L83.9771 2.36024 82.2584 0.641486 141.6 0.641486 141.6 4.07899 82.2584 4.07899C81.3091 4.07899 80.5396 3.30948 80.5396 2.36024L80.5396 0 82.2584 1.71875 0 1.71875ZM137.017-11.3898 164.517 2.36024 137.017 16.1102Z" fill="#00AAB5" transform="matrix(1 0 0 -1 2972.5 919.86)"/><rect x="3095" y="1479" width="670" height="363" fill="#00AAB5"/><text fill="#FFFFFF" font-family="Calibri,Calibri_MSFontService,sans-serif" font-weight="400" font-size="83" transform="matrix(1 0 0 1 3183.01 1638)">ZenDNN graph </text><text fill="#FFFFFF" font-family="Calibri,Calibri_MSFontService,sans-serif" font-weight="400" font-size="83" transform="matrix(1 0 0 1 3201.92 1737)">optimizations</text><path d="M3434.8 1118.5 3434.8 1300.24C3434.8 1301.19 3434.03 1301.96 3433.08 1301.96L3428.5 1301.96 3430.22 1300.24 3430.22 1459.06 3426.78 1459.06 3426.78 1300.24C3426.78 1299.29 3427.55 1298.52 3428.5 1298.52L3433.08 1298.52 3431.36 1300.24 3431.36 1118.5ZM3442.25 1454.48 3428.5 1481.98 3414.75 1454.48Z" fill="#00AAB5"/><path d="M2342 1659C2342 1549.1 2473.4 1460 2635.5 1460 2797.6 1460 2929 1549.1 2929 1659 2929 1768.9 2797.6 1858 2635.5 1858 2473.4 1858 2342 1768.9 2342 1659Z" fill="#A6CE39" fill-rule="evenodd"/><text fill="#FFFFFF" font-family="Calibri,Calibri_MSFontService,sans-serif" font-weight="400" font-size="83" transform="matrix(1 0 0 1 2461.9 1587)">Optimized </text><text fill="#FFFFFF" font-family="Calibri,Calibri_MSFontService,sans-serif" font-weight="400" font-size="83" transform="matrix(1 0 0 1 2555.86 1686)">Final </text><text fill="#FFFFFF" font-family="Calibri,Calibri_MSFontService,sans-serif" font-weight="400" font-size="83" transform="matrix(1 0 0 1 2526.37 1785)">Model</text><path d="M3095.87 1662.86 3012.68 1662.86C3011.74 1662.86 3010.97 1662.09 3010.97 1661.15L3010.97 1659.5 3012.68 1661.22 2952.42 1661.22 2952.42 1657.78 3012.68 1657.78C3013.63 1657.78 3014.4 1658.55 3014.4 1659.5L3014.4 1661.15 3012.68 1659.43 3095.87 1659.43ZM2957 1673.25 2929.5 1659.5 2957 1645.75Z" fill="#00AAB5"/></g></svg>