<svg width="1336" height="837" xmlns="http://www.w3.org/2000/svg" xmlns:xlink="http://www.w3.org/1999/xlink" xml:space="preserve" overflow="hidden"><defs><clipPath id="clip0"><rect x="300" y="651" width="1336" height="837"/></clipPath><clipPath id="clip1"><rect x="302" y="379" width="632" height="694"/></clipPath><clipPath id="clip2"><rect x="933" y="379" width="694" height="694"/></clipPath><clipPath id="clip3"><rect x="302" y="513" width="632" height="694"/></clipPath><clipPath id="clip4"><rect x="933" y="513" width="694" height="694"/></clipPath><clipPath id="clip5"><rect x="302" y="646" width="632" height="694"/></clipPath><clipPath id="clip6"><rect x="933" y="646" width="694" height="694"/></clipPath><clipPath id="clip7"><rect x="302" y="780" width="632" height="694"/></clipPath><clipPath id="clip8"><rect x="933" y="780" width="694" height="694"/></clipPath><clipPath id="clip9"><rect x="302" y="914" width="632" height="694"/></clipPath><clipPath id="clip10"><rect x="933" y="914" width="694" height="694"/></clipPath><clipPath id="clip11"><rect x="302" y="1042" width="632" height="694"/></clipPath><clipPath id="clip12"><rect x="933" y="1042" width="694" height="694"/></clipPath></defs><g clip-path="url(#clip0)" transform="translate(-300 -651)"><path d="M302.5 658.854 933.946 658.854 933.946 792.688 302.5 792.688Z" fill="#ED7D31" fill-rule="evenodd"/><path d="M933.946 658.854 1626.3 658.854 1626.3 792.688 933.946 792.688Z" fill="#ED7D31" fill-rule="evenodd"/><path d="M302.5 792.688 933.946 792.688 933.946 926.521 302.5 926.521Z" fill="#F8D7CD" fill-rule="evenodd"/><path d="M933.946 792.688 1626.3 792.688 1626.3 926.521 933.946 926.521Z" fill="#F8D7CD" fill-rule="evenodd"/><path d="M302.5 926.521 933.946 926.521 933.946 1060.35 302.5 1060.35Z" fill="#FCECE8" fill-rule="evenodd"/><path d="M933.946 926.521 1626.3 926.521 1626.3 1060.35 933.946 1060.35Z" fill="#FCECE8" fill-rule="evenodd"/><path d="M302.5 1060.35 933.946 1060.35 933.946 1194.19 302.5 1194.19Z" fill="#F8D7CD" fill-rule="evenodd"/><path d="M933.946 1060.35 1626.3 1060.35 1626.3 1194.19 933.946 1194.19Z" fill="#F8D7CD" fill-rule="evenodd"/><path d="M302.5 1194.19 933.946 1194.19 933.946 1328.02 302.5 1328.02Z" fill="#FCECE8" fill-rule="evenodd"/><path d="M933.946 1194.19 1626.3 1194.19 1626.3 1328.02 933.946 1328.02Z" fill="#FCECE8" fill-rule="evenodd"/><path d="M302.5 1328.02 933.946 1328.02 933.946 1449.94 302.5 1449.94Z" fill="#F8D7CD" fill-rule="evenodd"/><path d="M933.946 1328.02 1626.3 1328.02 1626.3 1449.94 933.946 1449.94Z" fill="#F8D7CD" fill-rule="evenodd"/><path d="M933.946 656.562 933.946 1452.23" stroke="#FFFFFF" stroke-width="4.58333" stroke-linejoin="round" stroke-miterlimit="10" fill="none" fill-rule="evenodd"/><path d="M300.208 792.688 1628.6 792.688" stroke="#FFFFFF" stroke-width="13.75" stroke-linejoin="round" stroke-miterlimit="10" fill="none" fill-rule="evenodd"/><path d="M300.208 926.521 1628.6 926.521" stroke="#FFFFFF" stroke-width="4.58333" stroke-linejoin="round" stroke-miterlimit="10" fill="none" fill-rule="evenodd"/><path d="M300.208 1060.35 1628.6 1060.35" stroke="#FFFFFF" stroke-width="4.58333" stroke-linejoin="round" stroke-miterlimit="10" fill="none" fill-rule="evenodd"/><path d="M300.208 1194.19 1628.6 1194.19" stroke="#FFFFFF" stroke-width="4.58333" stroke-linejoin="round" stroke-miterlimit="10" fill="none" fill-rule="evenodd"/><path d="M300.208 1328.02 1628.6 1328.02" stroke="#FFFFFF" stroke-width="4.58333" stroke-linejoin="round" stroke-miterlimit="10" fill="none" fill-rule="evenodd"/><path d="M302.5 656.562 302.5 1452.23" stroke="#FFFFFF" stroke-width="4.58333" stroke-linejoin="round" stroke-miterlimit="10" fill="none" fill-rule="evenodd"/><path d="M1626.3 656.562 1626.3 1452.23" stroke="#FFFFFF" stroke-width="4.58333" stroke-linejoin="round" stroke-miterlimit="10" fill="none" fill-rule="evenodd"/><path d="M300.208 658.854 1628.6 658.854" stroke="#FFFFFF" stroke-width="4.58333" stroke-linejoin="round" stroke-miterlimit="10" fill="none" fill-rule="evenodd"/><path d="M300.208 1449.94 1628.6 1449.94" stroke="#FFFFFF" stroke-width="4.58333" stroke-linejoin="round" stroke-miterlimit="10" fill="none" fill-rule="evenodd"/><g clip-path="url(#clip1)"><text fill="#FFFFFF" font-family="Calibri,Calibri_MSFontService,sans-serif" font-weight="700" font-size="83" transform="matrix(1 0 0 1 325.417 753)">Model</text></g><g clip-path="url(#clip2)"><text fill="#FFFFFF" font-family="Calibri,Calibri_MSFontService,sans-serif" font-weight="700" font-size="83" transform="matrix(1 0 0 1 956.862 753)">Improvement</text></g><g clip-path="url(#clip3)"><text font-family="Calibri,Calibri_MSFontService,sans-serif" font-weight="400" font-size="83" transform="matrix(1 0 0 1 325.417 887)">ResNet50</text></g><g clip-path="url(#clip4)"><text font-family="Calibri,Calibri_MSFontService,sans-serif" font-weight="400" font-size="83" transform="matrix(1 0 0 1 956.862 887)">34.59%</text></g><g clip-path="url(#clip5)"><text font-family="Calibri,Calibri_MSFontService,sans-serif" font-weight="400" font-size="83" transform="matrix(1 0 0 1 325.417 1021)">Alexnet</text></g><g clip-path="url(#clip6)"><text font-family="Calibri,Calibri_MSFontService,sans-serif" font-weight="400" font-size="83" transform="matrix(1 0 0 1 956.862 1021)">83.08%</text></g><g clip-path="url(#clip7)"><text font-family="Calibri,Calibri_MSFontService,sans-serif" font-weight="400" font-size="83" transform="matrix(1 0 0 1 325.417 1155)">GoogleNet</text></g><g clip-path="url(#clip8)"><text font-family="Calibri,Calibri_MSFontService,sans-serif" font-weight="400" font-size="83" transform="matrix(1 0 0 1 956.862 1155)">61.07%</text></g><g clip-path="url(#clip9)"><text font-family="Calibri,Calibri_MSFontService,sans-serif" font-weight="400" font-size="83" transform="matrix(1 0 0 1 325.417 1289)">Vgg11</text></g><g clip-path="url(#clip10)"><text font-family="Calibri,Calibri_MSFontService,sans-serif" font-weight="400" font-size="83" transform="matrix(1 0 0 1 956.862 1289)">78.09%</text></g><g clip-path="url(#clip11)"><text font-family="Calibri,Calibri_MSFontService,sans-serif" font-weight="400" font-size="83" transform="matrix(1 0 0 1 325.417 1416)">Inception</text></g><text font-family="Calibri,Calibri_MSFontService,sans-serif" font-weight="400" font-size="83" transform="matrix(1 0 0 1 642.446 1416)">-</text><text font-family="Calibri,Calibri_MSFontService,sans-serif" font-weight="400" font-size="83" transform="matrix(1 0 0 1 667.654 1416)">v4</text><g clip-path="url(#clip12)"><text font-family="Calibri,Calibri_MSFontService,sans-serif" font-weight="400" font-size="83" transform="matrix(1 0 0 1 956.862 1416)">57.99%</text></g></g></svg>