<svg xmlns="http://www.w3.org/2000/svg" xmlns:xlink="http://www.w3.org/1999/xlink" xmlns:lucid="lucid" width="1165.35" height="944.88"><g transform="translate(0 0)" lucid:page-tab-id="0_0"><path d="M332 153v3m0 3.98v5.98m0 4v5.97m0 4v5.97m0 4v5.97m0 4v5.97m0 4v5.97m0 4v5.98m0 4v5.97m0 4v5.97m0 4v5.97m0 3.98v5.98m0 4v5.97m0 4v5.97m0 3.98v6m0 3.97v6m0 3.97v6m0 3.97v5.98m0 3.98v6m0 3.97v6m0 3.97v5.98m0 4v5.97m0 4v5.97m0 4v5.97m0 3.98v5.98m0 4v5.97m0 4v5.97m0 4v5.97m0 4v5.97m0 4v5.97m0 4v5.98m0 4v5.97m0 4V475m0 4v5.97m0 3.98v5.98m0 4v5.97m0 4v5.97m0 4v5.97m0 4v5.97m0 4v5.97m0 4v5.98m0 4v5.97m0 4v5.97m0 4v5.97m0 3.98v5.98m0 4v5.97m0 4v5.97m0 3.98v6m0 3.97v6m0 3.97v6m0 3.97v5.98m0 3.98v6m0 3.97v6m0 3.97v5.98m0 4v5.97m0 4v5.97m0 4v5.97m0 3.98v5.98m0 4v5.97m0 4v5.97m0 4v5.97m0 4v5.97m0 4v5.97m0 4v5.98m0 4v5.97m0 4V804m0 4V811M332 153.03V152M332 810.97V812" stroke="#000" stroke-width="2" fill="none"/><path d="M32 732h240v60H32z" stroke="#000" stroke-opacity="0" stroke-width="2" fill="#fff" fill-opacity="0"/><use xlink:href="#a" transform="matrix(1,0,0,1,37,737) translate(82.5947265625 30.021484375)"/><path d="M32 492h240v60H32z" stroke="#000" stroke-opacity="0" stroke-width="2" fill="#fff" fill-opacity="0"/><use xlink:href="#b" transform="matrix(1,0,0,1,37,497) translate(66.39208984375 30.021484375)"/><path d="M32 252h240v60H32z" stroke="#000" stroke-opacity="0" stroke-width="2" fill="#fff" fill-opacity="0"/><use xlink:href="#c" transform="matrix(1,0,0,1,37,257) translate(50.189453125 30.021484375)"/><path d="M432 32h240v84.67H432z" stroke="#000" stroke-opacity="0" stroke-width="2" fill="#fff" fill-opacity="0"/><use xlink:href="#d" transform="matrix(1,0,0,1,437,37) translate(43.185185185185176 24.888888888888893)"/><use xlink:href="#e" transform="matrix(1,0,0,1,437,37) translate(27.71604938271605 62.222222222222236)"/><use xlink:href="#f" transform="matrix(1,0,0,1,437,37) translate(133.14814814814815 62.222222222222236)"/><path d="M432 252h240v60H432z" stroke="#000" stroke-opacity="0" stroke-width="2" fill="#fff" fill-opacity="0"/><use xlink:href="#g" transform="matrix(1,0,0,1,437,257) translate(85.025 30.025)"/><path d="M432 492h240v60H432z" stroke="#000" stroke-opacity="0" stroke-width="2" fill="#fff" fill-opacity="0"/><use xlink:href="#g" transform="matrix(1,0,0,1,437,497) translate(85.025 30.025)"/><path d="M552 313v160.5" stroke="#000" stroke-width="2" fill="none"/><path d="M553 313.03h-2V312h2z"/><path d="M552 488.76l-4.64-14.26h9.28z" stroke="#000" stroke-width="2"/><use xlink:href="#h" transform="matrix(1,0,0,1,560,393) translate(0 14.396484375)"/><path d="M552 553v159.5" stroke="#000" stroke-width="2" fill="none"/><path d="M553 553.03h-2V552h2z"/><path d="M552 727.76l-4.64-14.26h9.28z" stroke="#000" stroke-width="2"/><use xlink:href="#h" transform="matrix(1,0,0,1,560,632.5) translate(0 14.396484375)"/><path d="M792 143v3m0 3.98v5.98m0 4v5.97m0 4v5.97m0 4v5.97m0 4v5.97m0 4v5.97m0 4v5.98m0 4v5.97m0 4v5.97m0 4v5.97m0 3.98v5.98m0 4v5.97m0 4v5.97m0 4v5.97m0 4v5.97m0 4v5.97m0 4v5.98m0 4v5.97m0 4v5.97m0 4v5.97m0 3.98v5.98m0 4v5.97m0 4v5.97m0 4v5.97m0 4v5.97m0 4v5.97m0 4v6m0 3.97v6m0 3.97v6m0 3.97v6m0 3.98v6m0 3.97v6m0 3.97v6m0 3.97v5.98m0 3.98v6m0 3.97v6m0 3.97v6m0 3.97v6m0 3.97v6m0 3.97v6m0 4v5.97m0 4v5.97m0 4v5.97m0 4v5.98m0 4v5.97m0 4v5.97m0 4v5.97m0 3.98v5.98m0 4v5.97m0 4v5.97m0 4v5.97m0 4v5.97m0 4v5.97m0 4v5.98m0 4v5.97m0 4v5.97m0 4v5.97m0 3.98v5.98m0 4v5.97m0 4v5.97m0 4v5.97m0 4v5.97m0 4v5.97m0 4v5.98m0 4v5.97m0 4V804m0 4V811M792 143.03V142M792 810.97V812" stroke="#000" stroke-width="2" fill="none"/><path d="M472 732h160v60H472z" stroke="#000" stroke-width="2" fill="#ccc"/><use xlink:href="#g" transform="matrix(1,0,0,1,477,737) translate(45.025 30.025)"/><path d="M892 32h240v84.67H892z" stroke="#000" stroke-opacity="0" stroke-width="2" fill="#fff" fill-opacity="0"/><use xlink:href="#i" transform="matrix(1,0,0,1,897,37) translate(58.913580246913575 24.888888888888893)"/><use xlink:href="#j" transform="matrix(1,0,0,1,897,37) translate(40.80864197530863 62.222222222222236)"/><path d="M592 852h260v60H592z" stroke="#000" stroke-width="2" fill-opacity="0"/><use xlink:href="#k" transform="matrix(1,0,0,1,597,857) translate(-4.62109375 30.396484375)"/><path d="M552 794v67.5c0 11.32 9.18 20.5 20.5 20.5" stroke="#000" stroke-width="2" fill="none"/><path d="M553 794.03h-2V793h2z"/><path d="M587.76 882l-14.26 4.64v-9.28z" stroke="#000" stroke-width="2"/><path d="M252 852h160v60H252z" stroke="#000" stroke-width="2" fill="#ccc"/><use xlink:href="#l" transform="matrix(1,0,0,1,257,857) translate(20.9912109375 30.021484375)"/><path d="M414 882h158.5" stroke="#000" stroke-width="2" fill="none"/><path d="M414.03 883H413v-2h1.03z"/><path d="M587.76 882l-14.26 4.64v-9.28z" stroke="#000" stroke-width="2"/><path d="M892 252h240v60H892z" stroke="#000" stroke-opacity="0" stroke-width="2" fill="#fff" fill-opacity="0"/><use xlink:href="#m" transform="matrix(1,0,0,1,897,257) translate(17.7841796875 30.021484375)"/><path d="M825.33 850V237c0-13.8 11.2-25 25-25H990.5c11.87 0 21.5 9.63 21.5 21.5" stroke="#000" stroke-width="2" fill="none"/><path d="M826.33 851h-2v-1.03h2z"/><path d="M1012 248.76l-4.64-14.26h9.28z" stroke="#000" stroke-width="2"/><path d="M892 492h240v60H892z" stroke="#000" stroke-opacity="0" stroke-width="2" fill="#fff" fill-opacity="0"/><use xlink:href="#m" transform="matrix(1,0,0,1,897,497) translate(17.7841796875 30.021484375)"/><path d="M892 732h240v60H892z" stroke="#000" stroke-width="2" fill="#ccc"/><use xlink:href="#m" transform="matrix(1,0,0,1,897,737) translate(17.7841796875 30.021484375)"/><path d="M1012 313v160.5" stroke="#000" stroke-width="2" fill="none"/><path d="M1013 313.03h-2V312h2z"/><path d="M1012 488.76l-4.64-14.26h9.28z" stroke="#000" stroke-width="2"/><use xlink:href="#h" transform="matrix(1,0,0,1,1020,393) translate(0 14.396484375)"/><path d="M1012 553v159.5" stroke="#000" stroke-width="2" fill="none"/><path d="M1013 553.03h-2V552h2z"/><path d="M1012 727.76l-4.64-14.26h9.28z" stroke="#000" stroke-width="2"/><use xlink:href="#h" transform="matrix(1,0,0,1,1020,632.5) translate(0 14.396484375)"/><path d="M932 852h160v60H932z" stroke="#000" stroke-width="2" fill="#fff"/><use xlink:href="#n" transform="matrix(1,0,0,1,937,857) translate(45.05 17.525)"/><use xlink:href="#o" transform="matrix(1,0,0,1,937,857) translate(13.599999999999994 39.125)"/><path d="M1012 794v38.5" stroke="#000" stroke-width="2" fill="none"/><path d="M1013 794.03h-2V793h2z"/><path d="M1012 847.76l-4.64-14.26h9.28z" stroke="#000" stroke-width="2"/><defs><path d="M709-1193V0H519v-1193H76v-156h1076v156H709" id="p"/><path d="M617-1102c355 0 481 238 477 599H322c5 222 84 388 301 388 144 0 244-59 284-166l158 45C1002-72 854 20 623 20c-342 0-490-220-490-568 0-346 151-554 484-554zm291 461c-18-192-90-328-289-328-194 0-287 128-295 328h584" id="q"/><path d="M706-1102c241 0 344 136 343 381V0H868v-695c1-168-57-273-220-268-190 6-283 138-283 336V0H185c-3-360 6-732-6-1082h170c4 54 7 126 8 185h3c63-121 164-204 346-205" id="r"/><path d="M873-819c-18-114-119-146-250-146-163 0-245 50-245 151 0 151 170 148 294 185 182 54 388 94 388 320 0 240-189 325-439 329-245 4-410-69-454-268l159-31c24 133 136 168 295 165 144-2 270-31 270-171 0-164-195-160-331-202-167-52-350-87-350-299 0-218 173-315 413-313 220 2 373 77 412 260" id="s"/><path d="M615-1102c343 0 484 203 482 560-1 347-147 562-488 562-336 0-475-219-479-562-4-349 156-560 485-560zm-8 989c240 0 301-180 301-429 0-245-55-427-290-427-236 0-299 181-299 427 0 243 61 429 288 429" id="t"/><path d="M839-1102c70 0 148 7 206 17v167c-112-18-268-36-363 15-129 69-208 203-208 395V0H294c-10-367 32-789-52-1082h171c21 75 41 161 48 250h5c67-152 152-270 373-270" id="u"/><g id="a"><use transform="matrix(0.0087890625,0,0,0.0087890625,0,0)" xlink:href="#p"/><use transform="matrix(0.0087890625,0,0,0.0087890625,10.8017578125,0)" xlink:href="#q"/><use transform="matrix(0.0087890625,0,0,0.0087890625,21.603515625,0)" xlink:href="#r"/><use transform="matrix(0.0087890625,0,0,0.0087890625,32.4052734375,0)" xlink:href="#s"/><use transform="matrix(0.0087890625,0,0,0.0087890625,43.20703125,0)" xlink:href="#t"/><use transform="matrix(0.0087890625,0,0,0.0087890625,54.0087890625,0)" xlink:href="#u"/></g><path d="M614-1226c-167 1-283 53-283 213 0 183 186 193 334 234 230 63 463 120 463 409 0 286-219 387-518 390C309 23 131-98 79-338l185-37c34 165 149 248 351 246 184-2 324-58 324-238 0-203-207-221-372-266-210-57-422-111-422-377 0-267 201-356 470-360 279-5 430 101 480 324l-188 33c-28-141-121-215-293-213" id="v"/><path d="M528 20c-247 0-343-132-343-381v-721h180v686c-4 177 45 284 224 277 194-8 279-136 279-336v-627h181c3 360-6 732 6 1082H885c-4-54-7-126-8-185h-3C809-64 714 20 528 20" id="w"/><path d="M365-904c58-129 161-200 334-200 130 0 228 46 293 138s98 233 98 420c0 189-34 331-102 425S824 20 698 20c-170 0-275-64-336-184 0 55-3 116-9 164H179c5-68 6-147 6-223v-1261h180c-2 193 4 394-4 580h4zm283 791c221 0 256-197 256-427 0-229-34-425-254-425-236 0-285 195-285 441 0 237 53 411 283 411" id="x"/><g id="b"><use transform="matrix(0.0087890625,0,0,0.0087890625,0,0)" xlink:href="#v"/><use transform="matrix(0.0087890625,0,0,0.0087890625,10.8017578125,0)" xlink:href="#w"/><use transform="matrix(0.0087890625,0,0,0.0087890625,21.603515625,0)" xlink:href="#x"/><use transform="matrix(0.0087890625,0,0,0.0087890625,32.4052734375,0)" xlink:href="#p"/><use transform="matrix(0.0087890625,0,0,0.0087890625,43.20703125,0)" xlink:href="#q"/><use transform="matrix(0.0087890625,0,0,0.0087890625,54.0087890625,0)" xlink:href="#r"/><use transform="matrix(0.0087890625,0,0,0.0087890625,64.810546875,0)" xlink:href="#s"/><use transform="matrix(0.0087890625,0,0,0.0087890625,75.6123046875,0)" xlink:href="#t"/><use transform="matrix(0.0087890625,0,0,0.0087890625,86.4140625,0)" xlink:href="#u"/></g><g id="c"><use transform="matrix(0.0087890625,0,0,0.0087890625,0,0)" xlink:href="#v"/><use transform="matrix(0.0087890625,0,0,0.0087890625,10.8017578125,0)" xlink:href="#w"/><use transform="matrix(0.0087890625,0,0,0.0087890625,21.603515625,0)" xlink:href="#x"/><use transform="matrix(0.0087890625,0,0,0.0087890625,32.4052734375,0)" xlink:href="#v"/><use transform="matrix(0.0087890625,0,0,0.0087890625,43.20703125,0)" xlink:href="#w"/><use transform="matrix(0.0087890625,0,0,0.0087890625,54.0087890625,0)" xlink:href="#x"/><use transform="matrix(0.0087890625,0,0,0.0087890625,64.810546875,0)" xlink:href="#p"/><use transform="matrix(0.0087890625,0,0,0.0087890625,75.6123046875,0)" xlink:href="#q"/><use transform="matrix(0.0087890625,0,0,0.0087890625,86.4140625,0)" xlink:href="#r"/><use transform="matrix(0.0087890625,0,0,0.0087890625,97.2158203125,0)" xlink:href="#s"/><use transform="matrix(0.0087890625,0,0,0.0087890625,108.017578125,0)" xlink:href="#t"/><use transform="matrix(0.0087890625,0,0,0.0087890625,118.8193359375,0)" xlink:href="#u"/></g><path d="M127-220V0H93v-220H8v-28h204v28h-85" id="y"/><path d="M114-163C36-179 61-72 57 0H25l-1-190h30c1 12-1 29 2 39 6-27 23-49 58-41v29" id="z"/><path d="M141-36C126-15 110 5 73 4 37 3 15-17 15-53c-1-64 63-63 125-63 3-35-9-54-41-54-24 1-41 7-42 31l-33-3c5-37 33-52 76-52 45 0 72 20 72 64v82c-1 20 7 32 28 27v20c-31 9-61-2-59-35zM48-53c0 20 12 33 32 33 41-3 63-29 60-74-43 2-92-5-92 41" id="A"/><path d="M85-194c31 0 48 13 60 33l-1-100h32l1 261h-30c-2-10 0-23-3-31C134-8 116 4 85 4 32 4 16-35 15-94c0-66 23-100 70-100zm9 24c-40 0-46 34-46 75 0 40 6 74 45 74 42 0 51-32 51-76 0-42-9-74-50-73" id="B"/><path d="M24-231v-30h32v30H24zM24 0v-190h32V0H24" id="C"/><path d="M59-47c-2 24 18 29 38 22v24C64 9 27 4 27-40v-127H5v-23h24l9-43h21v43h35v23H59v120" id="D"/><path d="M100-194c62-1 85 37 85 99 1 63-27 99-86 99S16-35 15-95c0-66 28-99 85-99zM99-20c44 1 53-31 53-75 0-43-8-75-51-75s-53 32-53 75 10 74 51 75" id="E"/><path d="M117-194c89-4 53 116 60 194h-32v-121c0-31-8-49-39-48C34-167 62-67 57 0H25l-1-190h30c1 10-1 24 2 32 11-22 29-35 61-36" id="F"/><path d="M24 0v-261h32V0H24" id="G"/><g id="d"><use transform="matrix(0.08641975308641976,0,0,0.08641975308641976,0,0)" xlink:href="#y"/><use transform="matrix(0.08641975308641976,0,0,0.08641975308641976,17.802469135802472,0)" xlink:href="#z"/><use transform="matrix(0.08641975308641976,0,0,0.08641975308641976,28.08641975308642,0)" xlink:href="#A"/><use transform="matrix(0.08641975308641976,0,0,0.08641975308641976,45.37037037037039,0)" xlink:href="#B"/><use transform="matrix(0.08641975308641976,0,0,0.08641975308641976,62.65432098765433,0)" xlink:href="#C"/><use transform="matrix(0.08641975308641976,0,0,0.08641975308641976,69.4814814814815,0)" xlink:href="#D"/><use transform="matrix(0.08641975308641976,0,0,0.08641975308641976,78.12345679012347,0)" xlink:href="#C"/><use transform="matrix(0.08641975308641976,0,0,0.08641975308641976,84.95061728395063,0)" xlink:href="#E"/><use transform="matrix(0.08641975308641976,0,0,0.08641975308641976,102.23456790123458,0)" xlink:href="#F"/><use transform="matrix(0.08641975308641976,0,0,0.08641975308641976,119.51851851851853,0)" xlink:href="#A"/><use transform="matrix(0.08641975308641976,0,0,0.08641975308641976,136.80246913580248,0)" xlink:href="#G"/></g><path d="M30-248c87 1 191-15 191 75 0 78-77 80-158 76V0H30v-248zm33 125c57 0 124 11 124-50 0-59-68-47-124-48v98" id="H"/><path d="M179-190L93 31C79 59 56 82 12 73V49c39 6 53-20 64-50L1-190h34L92-34l54-156h33" id="I"/><path d="M106-169C34-169 62-67 57 0H25v-261h32l-1 103c12-21 28-36 61-36 89 0 53 116 60 194h-32v-121c2-32-8-49-39-48" id="J"/><g id="e"><use transform="matrix(0.08641975308641976,0,0,0.08641975308641976,0,0)" xlink:href="#H"/><use transform="matrix(0.08641975308641976,0,0,0.08641975308641976,20.740740740740744,0)" xlink:href="#I"/><use transform="matrix(0.08641975308641976,0,0,0.08641975308641976,36.296296296296305,0)" xlink:href="#D"/><use transform="matrix(0.08641975308641976,0,0,0.08641975308641976,44.93827160493828,0)" xlink:href="#J"/><use transform="matrix(0.08641975308641976,0,0,0.08641975308641976,62.22222222222223,0)" xlink:href="#E"/><use transform="matrix(0.08641975308641976,0,0,0.08641975308641976,79.50617283950618,0)" xlink:href="#F"/></g><path d="M140-251c81 0 123 46 123 126C263-46 219 4 140 4 59 4 17-45 17-125s42-126 123-126zm0 227c63 0 89-41 89-101s-29-99-89-99c-61 0-89 39-89 99S79-25 140-24" id="K"/><g id="f"><use transform="matrix(0.08641975308641976,0,0,0.08641975308641976,0,0)" xlink:href="#K"/><use transform="matrix(0.08641975308641976,0,0,0.08641975308641976,24.19753086419753,0)" xlink:href="#K"/><use transform="matrix(0.08641975308641976,0,0,0.08641975308641976,48.39506172839506,0)" xlink:href="#H"/></g><path d="M210-169c-67 3-38 105-44 169h-31v-121c0-29-5-50-35-48C34-165 62-65 56 0H25l-1-190h30c1 10-1 24 2 32 10-44 99-50 107 0 11-21 27-35 58-36 85-2 47 119 55 194h-31v-121c0-29-5-49-35-48" id="L"/><path d="M100-194c63 0 86 42 84 106H49c0 40 14 67 53 68 26 1 43-12 49-29l28 8c-11 28-37 45-77 45C44 4 14-33 15-96c1-61 26-98 85-98zm52 81c6-60-76-77-97-28-3 7-6 17-6 28h103" id="M"/><g id="g"><use transform="matrix(0.05,0,0,0.05,0,0)" xlink:href="#L"/><use transform="matrix(0.05,0,0,0.05,14.950000000000001,0)" xlink:href="#M"/><use transform="matrix(0.05,0,0,0.05,24.950000000000003,0)" xlink:href="#D"/><use transform="matrix(0.05,0,0,0.05,29.950000000000003,0)" xlink:href="#J"/><use transform="matrix(0.05,0,0,0.05,39.95,0)" xlink:href="#E"/><use transform="matrix(0.05,0,0,0.05,49.95,0)" xlink:href="#B"/></g><path d="M698-1104c312 3 392 244 392 558 0 315-82 566-392 566-169 0-277-65-331-184h-5c8 188 2 394 4 589H185V-858c0-76-1-156-6-224h175c6 52 9 120 10 178h4c58-122 150-202 330-200zm-49 991c225 0 255-203 255-433 0-225-32-419-253-419-236 0-285 192-285 441 0 237 53 411 283 411" id="N"/><path d="M891-1484c-201 251-362 514-362 954 0 441 161 704 362 955H701C500 176 342-90 342-532c0-440 159-704 359-952h190" id="O"/><path d="M528-1484c201 248 357 511 357 952 0 442-156 709-357 957H336C537 174 700-89 700-530c0-440-163-703-364-954h192" id="P"/><g id="h"><use transform="matrix(0.0087890625,0,0,0.0087890625,0,0)" xlink:href="#s"/><use transform="matrix(0.0087890625,0,0,0.0087890625,10.8017578125,0)" xlink:href="#w"/><use transform="matrix(0.0087890625,0,0,0.0087890625,21.603515625,0)" xlink:href="#N"/><use transform="matrix(0.0087890625,0,0,0.0087890625,32.4052734375,0)" xlink:href="#q"/><use transform="matrix(0.0087890625,0,0,0.0087890625,43.20703125,0)" xlink:href="#u"/><use transform="matrix(0.0087890625,0,0,0.0087890625,54.0087890625,0)" xlink:href="#O"/><use transform="matrix(0.0087890625,0,0,0.0087890625,64.810546875,0)" xlink:href="#P"/></g><path d="M96-169c-40 0-48 33-48 73s9 75 48 75c24 0 41-14 43-38l32 2c-6 37-31 61-74 61-59 0-76-41-82-99-10-93 101-131 147-64 4 7 5 14 7 22l-32 3c-4-21-16-35-41-35" id="Q"/><g id="i"><use transform="matrix(0.08641975308641976,0,0,0.08641975308641976,0,0)" xlink:href="#H"/><use transform="matrix(0.08641975308641976,0,0,0.08641975308641976,20.740740740740744,0)" xlink:href="#I"/><use transform="matrix(0.08641975308641976,0,0,0.08641975308641976,36.296296296296305,0)" xlink:href="#y"/><use transform="matrix(0.08641975308641976,0,0,0.08641975308641976,51.765432098765444,0)" xlink:href="#E"/><use transform="matrix(0.08641975308641976,0,0,0.08641975308641976,69.0493827160494,0)" xlink:href="#z"/><use transform="matrix(0.08641975308641976,0,0,0.08641975308641976,79.33333333333334,0)" xlink:href="#Q"/><use transform="matrix(0.08641975308641976,0,0,0.08641975308641976,94.8888888888889,0)" xlink:href="#J"/></g><path d="M30-248c118-7 216 8 213 122C240-48 200 0 122 0H30v-248zM63-27c89 8 146-16 146-99s-60-101-146-95v194" id="R"/><path d="M135-143c-3-34-86-38-87 0 15 53 115 12 119 90S17 21 10-45l28-5c4 36 97 45 98 0-10-56-113-15-118-90-4-57 82-63 122-42 12 7 21 19 24 35" id="S"/><path d="M115-194c55 1 70 41 70 98S169 2 115 4C84 4 66-9 55-30l1 105H24l-1-265h31l2 30c10-21 28-34 59-34zm-8 174c40 0 45-34 45-75s-6-73-45-74c-42 0-51 32-51 76 0 43 10 73 51 73" id="T"/><g id="j"><use transform="matrix(0.08641975308641976,0,0,0.08641975308641976,0,0)" xlink:href="#R"/><use transform="matrix(0.08641975308641976,0,0,0.08641975308641976,22.38271604938272,0)" xlink:href="#C"/><use transform="matrix(0.08641975308641976,0,0,0.08641975308641976,29.20987654320988,0)" xlink:href="#S"/><use transform="matrix(0.08641975308641976,0,0,0.08641975308641976,44.76543209876544,0)" xlink:href="#T"/><use transform="matrix(0.08641975308641976,0,0,0.08641975308641976,62.04938271604939,0)" xlink:href="#A"/><use transform="matrix(0.08641975308641976,0,0,0.08641975308641976,79.33333333333334,0)" xlink:href="#D"/><use transform="matrix(0.08641975308641976,0,0,0.08641975308641976,87.97530864197532,0)" xlink:href="#Q"/><use transform="matrix(0.08641975308641976,0,0,0.08641975308641976,103.53086419753087,0)" xlink:href="#J"/><use transform="matrix(0.08641975308641976,0,0,0.08641975308641976,120.81481481481482,0)" xlink:href="#M"/><use transform="matrix(0.08641975308641976,0,0,0.08641975308641976,138.0987654320988,0)" xlink:href="#z"/></g><path d="M1044 94c-116 96-242 189-450 189-304 0-446-213-512-468-90-345-18-804 126-1023 99-150 236-276 464-276 292 0 429 206 486 450 73 310 31 729-145 882-38 32-81 48-129 48-111 1-154-78-141-195h-6c-43 98-102 195-235 195-186 0-225-192-225-385 0-224 63-403 173-521 46-50 107-91 194-91 117 0 160 79 184 173h5l32-151h116c-45 245-103 479-136 733-8 62-9 140 46 140 75 0 105-78 129-152 53-166 68-445 22-636-33-142-99-259-202-326-112-74-280-58-384 19-199 148-286 441-286 787 0 288 75 520 251 630 53 33 115 49 183 49 172-2 274-77 369-158zM753-595c28-145 53-404-107-404-137 0-173 153-206 275-34 123-44 312-4 434 14 43 39 80 90 80 118 0 154-122 191-226 17-47 25-101 36-159" id="U"/><path d="M682 16c-209 0-323-80-324-285v-671H190v-142h170l58-282h120v282h432v142H538v652c2 114 60 155 182 155 106 0 209-16 297-34v137C921-4 806 16 682 16" id="V"/><path d="M631 20c-350 0-501-215-501-562 0-355 162-560 502-560 250 0 399 118 446 323l-192 14c-23-124-109-196-262-196-242 0-305 171-305 415 1 245 61 427 304 427 151 0 248-77 267-215l190 12C1039-107 883 20 631 20" id="W"/><path d="M648-963c-190 6-283 138-283 336V0H185v-1484h181c-2 197 6 404-9 587h3c62-120 159-205 339-205 242 0 351 135 350 381V0H868v-695c1-168-57-273-220-268" id="X"/><path d="M-5 220v-96h1238v96H-5" id="Y"/><path d="M839-1335c-182-6-269 67-259 253h491v142H580V0H400v-940H138v-142h262c-15-293 132-408 418-402 94 2 200 7 281 21v145c-75-10-177-14-260-17" id="Z"/><path d="M745-142h380V0H143v-142h422v-798H246v-142h499v940zM545-1292v-192h200v192H545" id="aa"/><path d="M865-914c-3-187-2-380-2-570h180v1261c0 76 1 155 6 223H877c-8-49-9-116-10-174h-5C801-44 708 26 530 26c-135 0-234-46-297-139s-95-232-95-419c0-377 131-566 392-566 176 0 271 63 335 184zm-286-51c-222 0-255 197-255 427 0 229 31 425 253 425 237 0 286-195 286-441 0-238-52-411-284-411" id="ab"/><path d="M1000-272c3 95 12 159 101 161 21 0 41-3 59-7V-6c-44 10-86 16-139 16-141 2-191-84-197-217h-6C748-76 648 20 446 20c-207 0-318-120-318-322 0-266 194-348 454-354l236-4c12-191-40-305-222-305-140 0-220 47-232 172l-188-17c33-204 181-292 423-292 255 0 401 118 401 364v466zm-683-27c0 109 63 184 175 182 166-3 259-96 306-217 24-65 20-120 20-200-232 7-501-28-501 235" id="ac"/><g id="k"><use transform="matrix(0.0087890625,0,0,0.0087890625,0,0)" xlink:href="#U"/><use transform="matrix(0.0087890625,0,0,0.0087890625,10.8017578125,0)" xlink:href="#V"/><use transform="matrix(0.0087890625,0,0,0.0087890625,21.603515625,0)" xlink:href="#t"/><use transform="matrix(0.0087890625,0,0,0.0087890625,32.4052734375,0)" xlink:href="#u"/><use transform="matrix(0.0087890625,0,0,0.0087890625,43.20703125,0)" xlink:href="#W"/><use transform="matrix(0.0087890625,0,0,0.0087890625,54.0087890625,0)" xlink:href="#X"/><use transform="matrix(0.0087890625,0,0,0.0087890625,64.810546875,0)" xlink:href="#Y"/><use transform="matrix(0.0087890625,0,0,0.0087890625,75.6123046875,0)" xlink:href="#Z"/><use transform="matrix(0.0087890625,0,0,0.0087890625,86.4140625,0)" xlink:href="#w"/><use transform="matrix(0.0087890625,0,0,0.0087890625,97.2158203125,0)" xlink:href="#r"/><use transform="matrix(0.0087890625,0,0,0.0087890625,108.017578125,0)" xlink:href="#W"/><use transform="matrix(0.0087890625,0,0,0.0087890625,118.8193359375,0)" xlink:href="#V"/><use transform="matrix(0.0087890625,0,0,0.0087890625,129.62109375,0)" xlink:href="#aa"/><use transform="matrix(0.0087890625,0,0,0.0087890625,140.4228515625,0)" xlink:href="#t"/><use transform="matrix(0.0087890625,0,0,0.0087890625,151.224609375,0)" xlink:href="#r"/><use transform="matrix(0.0087890625,0,0,0.0087890625,162.0263671875,0)" xlink:href="#Y"/><use transform="matrix(0.0087890625,0,0,0.0087890625,172.828125,0)" xlink:href="#ab"/><use transform="matrix(0.0087890625,0,0,0.0087890625,183.6298828125,0)" xlink:href="#aa"/><use transform="matrix(0.0087890625,0,0,0.0087890625,194.431640625,0)" xlink:href="#s"/><use transform="matrix(0.0087890625,0,0,0.0087890625,205.2333984375,0)" xlink:href="#N"/><use transform="matrix(0.0087890625,0,0,0.0087890625,216.03515625,0)" xlink:href="#ac"/><use transform="matrix(0.0087890625,0,0,0.0087890625,226.8369140625,0)" xlink:href="#V"/><use transform="matrix(0.0087890625,0,0,0.0087890625,237.638671875,0)" xlink:href="#W"/><use transform="matrix(0.0087890625,0,0,0.0087890625,248.4404296875,0)" xlink:href="#X"/></g><g id="l"><use transform="matrix(0.0087890625,0,0,0.0087890625,0,0)" xlink:href="#ab"/><use transform="matrix(0.0087890625,0,0,0.0087890625,10.8017578125,0)" xlink:href="#aa"/><use transform="matrix(0.0087890625,0,0,0.0087890625,21.603515625,0)" xlink:href="#s"/><use transform="matrix(0.0087890625,0,0,0.0087890625,32.4052734375,0)" xlink:href="#N"/><use transform="matrix(0.0087890625,0,0,0.0087890625,43.20703125,0)" xlink:href="#ac"/><use transform="matrix(0.0087890625,0,0,0.0087890625,54.0087890625,0)" xlink:href="#V"/><use transform="matrix(0.0087890625,0,0,0.0087890625,64.810546875,0)" xlink:href="#W"/><use transform="matrix(0.0087890625,0,0,0.0087890625,75.6123046875,0)" xlink:href="#X"/><use transform="matrix(0.0087890625,0,0,0.0087890625,86.4140625,0)" xlink:href="#q"/><use transform="matrix(0.0087890625,0,0,0.0087890625,97.2158203125,0)" xlink:href="#u"/></g><g id="m"><use transform="matrix(0.0087890625,0,0,0.0087890625,0,0)" xlink:href="#Y"/><use transform="matrix(0.0087890625,0,0,0.0087890625,10.8017578125,0)" xlink:href="#Y"/><use transform="matrix(0.0087890625,0,0,0.0087890625,21.603515625,0)" xlink:href="#V"/><use transform="matrix(0.0087890625,0,0,0.0087890625,32.4052734375,0)" xlink:href="#t"/><use transform="matrix(0.0087890625,0,0,0.0087890625,43.20703125,0)" xlink:href="#u"/><use transform="matrix(0.0087890625,0,0,0.0087890625,54.0087890625,0)" xlink:href="#W"/><use transform="matrix(0.0087890625,0,0,0.0087890625,64.810546875,0)" xlink:href="#X"/><use transform="matrix(0.0087890625,0,0,0.0087890625,75.6123046875,0)" xlink:href="#Y"/><use transform="matrix(0.0087890625,0,0,0.0087890625,86.4140625,0)" xlink:href="#Z"/><use transform="matrix(0.0087890625,0,0,0.0087890625,97.2158203125,0)" xlink:href="#w"/><use transform="matrix(0.0087890625,0,0,0.0087890625,108.017578125,0)" xlink:href="#r"/><use transform="matrix(0.0087890625,0,0,0.0087890625,118.8193359375,0)" xlink:href="#W"/><use transform="matrix(0.0087890625,0,0,0.0087890625,129.62109375,0)" xlink:href="#V"/><use transform="matrix(0.0087890625,0,0,0.0087890625,140.4228515625,0)" xlink:href="#aa"/><use transform="matrix(0.0087890625,0,0,0.0087890625,151.224609375,0)" xlink:href="#t"/><use transform="matrix(0.0087890625,0,0,0.0087890625,162.0263671875,0)" xlink:href="#r"/><use transform="matrix(0.0087890625,0,0,0.0087890625,172.828125,0)" xlink:href="#Y"/><use transform="matrix(0.0087890625,0,0,0.0087890625,183.6298828125,0)" xlink:href="#Y"/></g><path d="M33 0v-248h34V0H33" id="ad"/><g id="n"><use transform="matrix(0.05,0,0,0.05,0,0)" xlink:href="#ad"/><use transform="matrix(0.05,0,0,0.05,5,0)" xlink:href="#F"/><use transform="matrix(0.05,0,0,0.05,15,0)" xlink:href="#D"/><use transform="matrix(0.05,0,0,0.05,20,0)" xlink:href="#M"/><use transform="matrix(0.05,0,0,0.05,30,0)" xlink:href="#z"/><use transform="matrix(0.05,0,0,0.05,35.95,0)" xlink:href="#F"/><use transform="matrix(0.05,0,0,0.05,45.95,0)" xlink:href="#A"/><use transform="matrix(0.05,0,0,0.05,55.95,0)" xlink:href="#G"/></g><g id="o"><use transform="matrix(0.05,0,0,0.05,0,0)" xlink:href="#ad"/><use transform="matrix(0.05,0,0,0.05,5,0)" xlink:href="#L"/><use transform="matrix(0.05,0,0,0.05,19.950000000000003,0)" xlink:href="#T"/><use transform="matrix(0.05,0,0,0.05,29.950000000000003,0)" xlink:href="#G"/><use transform="matrix(0.05,0,0,0.05,33.900000000000006,0)" xlink:href="#M"/><use transform="matrix(0.05,0,0,0.05,43.900000000000006,0)" xlink:href="#L"/><use transform="matrix(0.05,0,0,0.05,58.85,0)" xlink:href="#M"/><use transform="matrix(0.05,0,0,0.05,68.85000000000001,0)" xlink:href="#F"/><use transform="matrix(0.05,0,0,0.05,78.85000000000001,0)" xlink:href="#D"/><use transform="matrix(0.05,0,0,0.05,83.85000000000001,0)" xlink:href="#A"/><use transform="matrix(0.05,0,0,0.05,93.85000000000001,0)" xlink:href="#D"/><use transform="matrix(0.05,0,0,0.05,98.85000000000001,0)" xlink:href="#C"/><use transform="matrix(0.05,0,0,0.05,102.80000000000001,0)" xlink:href="#E"/><use transform="matrix(0.05,0,0,0.05,112.80000000000001,0)" xlink:href="#F"/></g></defs></g></svg>